PathFileType        4      (X/Y/Z)      Static.trc         
DataRate	CameraRate	NumFrames	NumMarkers	Units	OrigDataRate	OrigDataStartFrame	OrigNumFrames
100.0	100.0	8	33	mm	100.0	79	156
Frame#	Time	T2			T10			MANU			LASI			RASI			SACR			LTHI			LKAX			LKD1			LKD2			LKNE			LTIB			LANK			LMED			LHEE			LTOE			RTHI			RKAX			RKD1			RKD2			RKNE			RTIB			RANK			RMED			RHEE			RTOE			RHJC			LHJC			RKJC			LKJC			MASI			RAJC			LAJC			
		X1	Y1	Z1	X2	Y2	Z2	X3	Y3	Z3	X4	Y4	Z4	X5	Y5	Z5	X6	Y6	Z6	X7	Y7	Z7	X8	Y8	Z8	X9	Y9	Z9	X10	Y10	Z10	X11	Y11	Z11	X12	Y12	Z12	X13	Y13	Z13	X14	Y14	Z14	X15	Y15	Z15	X16	Y16	Z16	X17	Y17	Z17	X18	Y18	Z18	X19	Y19	Z19	X20	Y20	Z20	X21	Y21	Z21	X22	Y22	Z22	X23	Y23	Z23	X24	Y24	Z24	X25	Y25	Z25	X26	Y26	Z26	X27	Y27	Z27	X28	Y28	Z28	X29	Y29	Z29	X30	Y30	Z30	X31	Y31	Z31	X32	Y32	Z32	X33	Y33	Z33	
79	0.78	132.88341	1122.7879	-59.44631	108.18402	924.50138	-76.42307	245.91717	1049.70995	-46.97789	302.32863	736.36998	-149.47645	271.90994	740.3815	68.86196	166.00147	771.58031	-61.09009	306.98914	418.51995	-213.96045	315.4693	355.36832	-277.25737	407.83329	348.82001	-182.79894	310.39861	259.49134	-186.14888	314.42063	352.92073	-183.72655	203.37373	135.90118	-238.28545	156.69671	61.89741	-207.34587	157.5168	49.05865	-133.45437	95.02847	39.54726	-184.95728	268.66651	29.54194	-184.1786	300.42221	432.38396	113.06167	320.70516	361.52192	175.89115	409.61971	357.52201	68.22253	312.73146	265.96544	78.07578	313.53644	361.30731	77.97079	225.57174	144.53096	130.04287	174.1784	53.87704	102.67581	177.92896	57.04303	24.12465	118.74677	37.28589	79.91411	289.01435	29.636	54.12155	217.29319	676.05315	31.95593	239.38379	673.13992	-126.60536	310.17779	361.20676	32.09368	313.90509	351.71745	-137.74518	287.11929	738.37574	-40.30724	172.43233	47.20488	64.24551	152.8732	47.47957	-171.2818	
80	0.79	132.93412	1122.78618	-59.49286	108.22438	924.50482	-76.45673	245.97021	1049.68172	-47.00332	302.35288	736.36018	-149.4865	271.9163	740.3633	68.84721	166.03156	771.55208	-61.10952	307.0203	418.49881	-213.97854	315.50825	355.35682	-277.26871	407.86534	348.8005	-182.79066	310.41925	259.48536	-186.16203	314.44927	352.91169	-183.73595	203.38808	135.89965	-238.29447	156.70745	61.90054	-207.3518	157.52617	49.06754	-133.44938	95.01997	39.55329	-184.94454	268.66615	29.55228	-184.18387	300.46072	432.3868	113.0547	320.73819	361.52158	175.88286	409.65049	357.52377	68.21815	312.73735	265.9536	78.06869	313.559	361.30975	77.96371	225.58635	144.53512	130.03361	174.18674	53.89714	102.67786	177.92923	57.04909	24.12222	118.74285	37.28922	79.90715	289.01768	29.64685	54.12222	217.31205	676.03086	31.93598	239.41567	673.12372	-126.62206	310.19542	361.21051	32.08696	313.92866	351.70964	-137.7546	287.13459	738.36174	-40.31965	172.43627	47.21821	64.24549	152.88289	47.48595	-171.28203	
81	0.8	132.9826	1122.77703	-59.54474	108.27599	924.5134	-76.49193	246.01503	1049.65752	-47.02591	302.38008	736.35142	-149.49589	271.92193	740.3466	68.83483	166.08614	771.50345	-61.1272	307.04895	418.47513	-213.99313	315.54704	355.34238	-277.28017	407.89746	348.78111	-182.78551	310.42861	259.47056	-186.17602	314.47339	352.90099	-183.7458	203.40276	135.89855	-238.30679	156.71912	61.89982	-207.36164	157.53034	49.0774	-133.44483	95.01609	39.55446	-184.93633	268.66662	29.5642	-184.19113	300.48609	432.38332	113.04886	320.75779	361.51336	175.87134	409.67375	357.52094	68.21626	312.74791	265.94572	78.06474	313.57859	361.30506	77.9572	225.59836	144.53759	130.02358	174.19242	53.91486	102.67915	177.92334	57.04845	24.11925	118.73459	37.29072	79.89379	289.02109	29.65878	54.12422	217.34437	676.00072	31.91937	239.46366	673.09934	-126.6365	310.21485	361.20746	32.08046	313.94559	351.70081	-137.76449	287.151	738.34901	-40.33053	172.43564	47.22706	64.24481	152.89057	47.49088	-171.28449	
82	0.81	133.03273	1122.76436	-59.59634	108.3358	924.52343	-76.52841	246.05502	1049.63762	-47.04818	302.41332	736.34436	-149.50318	271.92926	740.33199	68.82242	166.16217	771.44359	-61.14144	307.07859	418.45078	-214.004	315.5881	355.32626	-277.29154	407.93026	348.76113	-182.78448	310.43078	259.45015	-186.19012	314.49647	352.88955	-183.75671	203.41818	135.89725	-238.32102	156.72918	61.89671	-207.37201	157.53114	49.08546	-133.44397	95.01642	39.55243	-184.93139	268.67054	29.57528	-184.1993	300.4993	432.37573	113.04382	320.76615	361.49995	175.85654	409.69074	357.51432	68.21623	312.76498	265.94398	78.06209	313.59726	361.29548	77.95051	225.60857	144.53757	130.01257	174.19655	53.9257	102.67898	177.91356	57.0433	24.11479	118.72409	37.29158	79.87505	289.02561	29.67026	54.12664	217.38797	675.968	31.90329	239.52608	673.0721	-126.64897	310.23805	361.19967	32.07343	313.95983	351.69167	-137.77544	287.17129	738.33817	-40.34038	172.43211	47.23019	64.24262	152.89576	47.49367	-171.28907	
83	0.82	133.08623	1122.75165	-59.64173	108.39932	924.53378	-76.56443	246.09459	1049.62272	-47.07252	302.4554	736.33982	-149.50735	271.93951	740.32001	68.80816	166.24931	771.38694	-61.15179	307.11166	418.42753	-214.01074	315.63288	355.31027	-277.30213	407.96377	348.74057	-182.78653	310.43069	259.42849	-186.20271	314.52133	352.87879	-183.76826	203.43517	135.89655	-238.33471	156.73521	61.89353	-207.37885	157.52981	49.09027	-133.44923	95.01833	39.54898	-184.92759	268.67826	29.5839	-184.2076	300.50314	432.36705	113.0397	320.76777	361.48688	175.83941	409.70334	357.50534	68.2171	312.78738	265.94933	78.05919	313.61651	361.28506	77.94297	225.61772	144.53571	130.00176	174.20019	53.92805	102.67723	177.90259	57.03765	24.10832	118.71243	37.29334	79.85293	289.03111	29.68023	54.12837	217.43609	675.93964	31.88454	239.59737	673.04914	-126.66077	310.26518	361.19048	32.06531	313.9749	351.68348	-137.78704	287.19746	738.32991	-40.3496	172.42762	47.22874	64.23862	152.89777	47.49473	-171.29497	
84	0.83	133.1415	1122.74108	-59.6782	108.46421	924.54459	-76.59756	246.13485	1049.61245	-47.09823	302.50651	736.33679	-149.50715	271.9531	740.31149	68.79286	166.33406	771.34726	-61.16024	307.14805	418.40611	-214.0117	315.67948	355.29508	-277.3092	407.99557	348.71798	-182.78721	310.43106	259.40862	-186.2106	314.54779	352.86853	-183.77743	203.45307	135.89711	-238.34356	156.73563	61.89186	-207.3791	157.52606	49.0917	-133.45964	95.01863	39.54528	-184.92327	268.68657	29.58808	-184.21317	300.50087	432.35911	113.03762	320.76682	361.47928	175.82276	409.7116	357.49372	68.22033	312.81109	265.96085	78.05696	313.63627	361.27667	77.93617	225.62551	144.53363	129.99478	174.20261	53.92341	102.67512	177.89272	57.03546	24.1003	118.69843	37.29645	79.83133	289.03602	29.68754	54.13027	217.48025	675.92199	31.86326	239.66888	673.03547	-126.67147	310.29427	361.18171	32.05783	313.99144	351.67561	-137.79626	287.22981	738.32414	-40.35715	172.42301	47.22547	64.23361	152.89561	47.49482	-171.30019	
85	0.84	133.19461	1122.73347	-59.70677	108.53039	924.55417	-76.62694	246.17285	1049.60491	-47.12249	302.5642	736.33283	-149.50225	271.9716	740.30831	68.77913	166.4067	771.33128	-61.17043	307.18599	418.38664	-214.00547	315.72373	355.27982	-277.30947	408.02147	348.69109	-182.78117	310.43197	259.39136	-186.21083	314.573	352.8569	-183.78055	203.46974	135.89906	-238.34389	156.73021	61.89204	-207.3723	157.51853	49.09093	-133.47124	95.01522	39.54255	-184.91847	268.69134	29.58671	-184.21247	300.49587	432.35264	113.03867	320.76535	361.47915	175.81068	409.71482	357.47855	68.22905	312.83223	265.97666	78.05736	313.65557	361.27144	77.93324	225.63077	144.53312	129.99605	174.20208	53.91516	102.6743	177.8846	57.03821	24.09159	118.67952	37.30003	79.81432	289.03834	29.69148	54.13441	217.51624	675.91857	31.84331	239.73344	673.03147	-126.67874	310.32293	361.17407	32.05422	314.00728	351.66573	-137.79946	287.2679	738.32057	-40.36156	172.41779	47.22285	64.22882	152.88853	47.49478	-171.30257	
86	0.85	133.24271	1122.72799	-59.73042	108.5984	924.55802	-76.65433	246.20586	1049.59816	-47.14422	302.62612	736.32673	-149.49495	271.99689	740.31208	68.7685	166.46599	771.33697	-61.18604	307.22516	418.37012	-213.99337	315.76273	355.26308	-277.30264	408.03942	348.66001	-182.76671	310.43324	259.37665	-186.204	314.59461	352.84264	-183.77732	203.48363	135.90261	-238.336	156.72063	61.8935	-207.36087	157.5063	49.09017	-133.48046	95.00896	39.54233	-184.91622	268.69147	29.58184	-184.20559	300.49188	432.34851	113.04233	320.76436	361.48568	175.80604	409.7148	357.4616	68.24418	312.84996	265.99516	78.06057	313.67402	361.27026	77.93569	225.63284	144.53554	130.0066	174.19787	53.90694	102.67487	177.87724	57.04391	24.08287	118.65512	37.30319	79.80305	289.03716	29.69266	54.1404	217.54581	675.92866	31.82777	239.78972	673.03437	-126.68207	310.35021	361.16927	32.05604	314.0203	351.65264	-137.7963	287.3115	738.31941	-40.36322	172.41111	47.22169	64.22459	152.87698	47.49549	-171.30152	
